<?xml version="1.0" encoding="UTF-8"?>
<svg width="516px" height="82px" viewBox="0 0 516 82" version="1.1" xmlns="http://www.w3.org/2000/svg" xmlns:xlink="http://www.w3.org/1999/xlink">
    <!-- Generator: Sketch 57.1 (83088) - https://sketch.com -->
    <title>library-icons</title>
    <desc>Created with Sketch.</desc>
    <defs>
        <path d="M11.4545455,0 L11.454,9.545 L21,9.54545455 L21,11.4545455 L11.454,11.454 L11.4545455,21 L9.54545455,21 L9.545,11.454 L0,11.4545455 L0,9.54545455 L9.545,9.545 L9.54545455,0 L11.4545455,0 Z" id="path-1"></path>
        <path d="M13.4215393,2.92153925 C13.980699,2.36237947 13.980699,1.45580234 13.4215393,0.896642563 C12.8623795,0.337482782 11.9558023,0.337482782 11.3966426,0.896642563 L1.85118802,10.4420971 C1.29202824,11.0012569 1.29202824,11.907834 1.85118802,12.4669938 L11.3966426,22.0124483 C11.9558023,22.5716081 12.8623795,22.5716081 13.4215393,22.0124483 C13.980699,21.4532886 13.980699,20.5467114 13.4215393,19.9875517 L4.88853306,11.4545455 L13.4215393,2.92153925 Z" id="path-3"></path>
        <path d="M7.63636364,0 C11.3453627,0 13.3636364,2.01827365 13.3636364,5.72727273 L13.3636364,5.72727273 L13.363,7.636 L15.2727273,7.63636364 L15.2727273,19.0909091 L0,19.0909091 L0,7.63636364 L1.909,7.636 L1.90909091,5.72727273 C1.90909091,2.10452944 3.83458291,0.0947875928 7.38034358,0.00327052652 Z M7.63636364,1.90909091 C4.98172635,1.90909091 3.81818182,3.07263544 3.81818182,5.72727273 L3.81818182,5.72727273 L3.818,7.636 L11.454,7.636 L11.4545455,5.72727273 C11.4545455,3.153079 10.3604503,1.98097799 7.87359572,1.91230538 Z" id="path-5"></path>
        <path d="M9.54545455,0 L18.1363636,5.72727273 L9.54545455,10.5 L9.54496593,5.77975877 C5.24979393,6.2548141 1.90909091,9.89636646 1.90909091,14.3181818 C1.90909091,19.0628099 5.75537192,22.9090909 10.5,22.9090909 C15.2446281,22.9090909 19.0909091,19.0628099 19.0909091,14.3181818 L19.0909091,14.3181818 L21,14.3181818 C21,20.1171717 16.2989899,24.8181818 10.5,24.8181818 C4.70101013,24.8181818 0,20.1171717 0,14.3181818 C0,8.84097809 4.19376679,4.34328108 9.54539969,3.86099146 L9.54545455,0 Z" id="path-7"></path>
        <path d="M8.59090909,9.54545455 L8.59090909,11.4545455 L2.86363636,11.4545455 L2.86363636,26.7272727 L20.0454545,26.7272727 L20.0454545,11.4545455 L14.3181818,11.4545455 L14.3181818,9.54545455 L21,9.54545455 C21.5271809,9.54545455 21.9545455,9.9728191 21.9545455,10.5 L21.9545455,10.5 L21.9545455,27.6818182 C21.9545455,28.2089991 21.5271809,28.6363636 21,28.6363636 L21,28.6363636 L1.90909091,28.6363636 C1.38191001,28.6363636 0.954545455,28.2089991 0.954545455,27.6818182 L0.954545455,27.6818182 L0.954545455,10.5 C0.954545455,9.9728191 1.38191001,9.54545455 1.90909091,9.54545455 L1.90909091,9.54545455 L8.59090909,9.54545455 Z M12.1013813,0.252338213 L12.1878476,0.343460346 L16.9605749,6.07073307 C17.2980678,6.47572466 17.2433494,7.07762733 16.8383578,7.41512031 C16.4645195,7.7266523 15.9228988,7.70399232 15.5763373,7.38012593 L15.4939706,7.29290329 L12.4082488,3.59 L12.4090909,19.0909091 L10.5,19.0909091 L10.4992488,3.591 L7.41512031,7.29290329 C7.10358832,7.66674168 6.56676051,7.74212246 6.16747815,7.48606007 L6.07073307,7.41512031 C5.69689469,7.10358832 5.62151391,6.56676051 5.8775763,6.16747815 L5.94851605,6.07073307 L10.7212433,0.343460346 C11.0756072,-0.0817762728 11.7073866,-0.112150317 12.1013813,0.252338213 Z" id="path-9"></path>
        <path d="M13.3636364,0 C20.7441689,0 26.7272727,5.9831038 26.7272727,13.3636364 C26.7272727,20.7441689 20.7441689,26.7272727 13.3636364,26.7272727 C5.9831038,26.7272727 0,20.7441689 0,13.3636364 C0,5.9831038 5.9831038,0 13.3636364,0 Z M15.2727273,5.72727273 L11.4545455,5.72727273 L11.4545455,13.3636364 L6.68181818,13.3636364 L13.3636364,21.9545455 L20.0454545,13.3636364 L15.2727273,13.3636364 L15.2727273,5.72727273 Z" id="path-11"></path>
        <path d="M16.2272727,5.72727273 C16.7544536,5.72727273 17.1818182,6.15463728 17.1818182,6.68181818 L17.1818182,6.68181818 L17.1818182,21.9545455 C17.1818182,22.4817264 16.7544536,22.9090909 16.2272727,22.9090909 L16.2272727,22.9090909 L0.954545455,22.9090909 C0.427364557,22.9090909 0,22.4817264 0,21.9545455 L0,21.9545455 L0,6.68181818 C0,6.15463728 0.427364557,5.72727273 0.954545455,5.72727273 L0.954545455,5.72727273 Z M15.2727273,7.63636364 L1.90909091,7.63636364 L1.90909091,21 L15.2727273,21 L15.2727273,7.63636364 Z M21.9545455,0 C22.4817264,0 22.9090909,0.427364557 22.9090909,0.954545455 L22.9090909,0.954545455 L22.9090909,16.2272727 C22.9090909,16.7544536 22.4817264,17.1818182 21.9545455,17.1818182 L21.9545455,17.1818182 L19.0909091,17.1818182 L19.0909091,15.2727273 L21,15.2727273 L21,1.90909091 L7.63636364,1.90909091 L7.63636364,3.81818182 L5.72727273,3.81818182 L5.72727273,0.954545455 C5.72727273,0.427364557 6.15463728,0 6.68181818,0 L6.68181818,0 Z" id="path-13"></path>
        <path d="M28.6363636,0.954545455 C29.1635445,0.954545455 29.5909091,1.38191001 29.5909091,1.90909091 L29.5909091,22.9090909 C29.5909091,23.4362718 29.1635445,23.8636364 28.6363636,23.8636364 L1.90909091,23.8636364 C1.38191001,23.8636364 0.954545455,23.4362718 0.954545455,22.9090909 L0.954545455,1.90909091 C0.954545455,1.38191001 1.38191001,0.954545455 1.90909091,0.954545455 L28.6363636,0.954545455 Z M2.86363636,2.86363636 L2.86363636,21.9545455 L10.4995455,21.9545455 L10.5,2.86363636 L2.86363636,2.86363636 Z M12.4085455,21.9545455 L27.6818182,21.9545455 L27.6818182,2.86363636 L12.4090909,2.86363636 L12.4085455,21.9545455 Z" id="path-15"></path>
        <path d="M4.77272727,8.59090909 L4.77272727,10.5 L0.954545455,10.5 L0.954545455,8.59090909 L4.77272727,8.59090909 Z M4.77272727,4.77272727 L4.77272727,6.68181818 L0.954545455,6.68181818 L0.954545455,4.77272727 L4.77272727,4.77272727 Z M4.77272727,0.954545455 L4.77272727,2.86363636 L0.954545455,2.86363636 L0.954545455,0.954545455 L4.77272727,0.954545455 Z" id="path-17"></path>
    </defs>
    <g id="library-icons" stroke="none" stroke-width="1" fill="none" fill-rule="evenodd">
        <g id="icon-/-+" transform="translate(20.000000, 20.000000)">
            <g id="icon" transform="translate(9.545455, 9.545455)">
                <mask id="mask-2" fill="white">
                    <use xlink:href="#path-1"></use>
                </mask>
                <use id="Mask" fill="#919192" fill-rule="nonzero" xlink:href="#path-1"></use>
                <g id="colors-/-black" mask="url(#mask-2)" fill="#000000">
                    <g transform="translate(-9.545455, -9.545455)" id="Rectangle">
                        <rect x="0" y="0" width="42" height="42"></rect>
                    </g>
                </g>
            </g>
        </g>
        <g id="icon-/-arrow" transform="translate(82.000000, 20.000000)">
            <g id="icon" transform="translate(13.363636, 9.545455)">
                <mask id="mask-4" fill="white">
                    <use xlink:href="#path-3"></use>
                </mask>
                <use id="Mask" fill="#87898B" fill-rule="nonzero" xlink:href="#path-3"></use>
                <g id="colors-/-black" mask="url(#mask-4)" fill="#000000">
                    <g transform="translate(-13.363636, -9.545455)" id="Rectangle">
                        <rect x="0" y="0" width="42" height="42"></rect>
                    </g>
                </g>
            </g>
        </g>
        <g id="icon-/-lock" transform="translate(144.000000, 20.000000)">
            <g id="icon" transform="translate(13.363636, 11.454545)">
                <mask id="mask-6" fill="white">
                    <use xlink:href="#path-5"></use>
                </mask>
                <use id="Mask" fill="#D8D8D8" xlink:href="#path-5"></use>
                <g id="colors-/-black" mask="url(#mask-6)" fill="#000000">
                    <g transform="translate(-13.363636, -11.454545)" id="Rectangle">
                        <rect x="0" y="0" width="42" height="42"></rect>
                    </g>
                </g>
            </g>
        </g>
        <g id="icon-/-refresh" transform="translate(206.000000, 20.000000)">
            <g id="icon" transform="translate(9.545455, 7.636364)">
                <mask id="mask-8" fill="white">
                    <use xlink:href="#path-7"></use>
                </mask>
                <use id="Mask" fill="#E9E9E9" xlink:href="#path-7"></use>
                <g id="colors-/-black" mask="url(#mask-8)" fill="#000000">
                    <g transform="translate(-9.545455, -7.636364)" id="Rectangle">
                        <rect x="0" y="0" width="42" height="42"></rect>
                    </g>
                </g>
            </g>
        </g>
        <g id="icon-/-share" transform="translate(268.000000, 20.000000)">
            <g id="icon" transform="translate(9.545455, 5.727273)">
                <mask id="mask-10" fill="white">
                    <use xlink:href="#path-9"></use>
                </mask>
                <use id="Mask" fill="#87888A" fill-rule="nonzero" xlink:href="#path-9"></use>
                <g id="colors-/-black" mask="url(#mask-10)" fill="#000000">
                    <g transform="translate(-9.545455, -5.727273)" id="Rectangle">
                        <rect x="0" y="0" width="42" height="42"></rect>
                    </g>
                </g>
            </g>
        </g>
        <g id="icon-/-show-downloads" transform="translate(330.000000, 20.000000)">
            <g id="background" transform="translate(7.636364, 7.636364)">
                <mask id="mask-12" fill="white">
                    <use xlink:href="#path-11"></use>
                </mask>
                <use id="Mask" fill="#F3F4F6" xlink:href="#path-11"></use>
                <g id="colors-/-black" mask="url(#mask-12)" fill="#000000">
                    <g transform="translate(-7.636364, -7.636364)" id="Rectangle">
                        <rect x="0" y="0" width="42" height="42"></rect>
                    </g>
                </g>
            </g>
        </g>
        <g id="icon-/-show-tab-overview" transform="translate(392.000000, 20.000000)">
            <g id="icon" transform="translate(9.545455, 9.545455)">
                <mask id="mask-14" fill="white">
                    <use xlink:href="#path-13"></use>
                </mask>
                <use id="Mask" fill="#F2F3F5" fill-rule="nonzero" xlink:href="#path-13"></use>
                <g id="colors-/-black" mask="url(#mask-14)" fill="#000000">
                    <g transform="translate(-9.545455, -9.545455)" id="Rectangle">
                        <rect x="0" y="0" width="42" height="42"></rect>
                    </g>
                </g>
            </g>
        </g>
        <g id="icon-/-sidebar" transform="translate(454.000000, 20.000000)">
            <g id="icon" transform="translate(5.727273, 7.636364)">
                <g id="fill-1">
                    <mask id="mask-16" fill="white">
                        <use xlink:href="#path-15"></use>
                    </mask>
                    <use id="Mask" fill="#F1F3F5" fill-rule="nonzero" xlink:href="#path-15"></use>
                    <g id="colors-/-black" mask="url(#mask-16)" fill="#000000">
                        <g transform="translate(-5.727273, -7.636364)" id="Rectangle">
                            <rect x="0" y="0" width="42" height="42"></rect>
                        </g>
                    </g>
                </g>
                <g id="fill-2" transform="translate(3.818182, 3.818182)">
                    <mask id="mask-18" fill="white">
                        <use xlink:href="#path-17"></use>
                    </mask>
                    <use id="Mask" fill="#B9BABC" fill-rule="nonzero" xlink:href="#path-17"></use>
                    <g id="colors-/-black" mask="url(#mask-18)" fill="#000000">
                        <g transform="translate(-9.545455, -11.454545)" id="Rectangle">
                            <rect x="0" y="0" width="42" height="42"></rect>
                        </g>
                    </g>
                </g>
            </g>
        </g>
    </g>
</svg>