<?xml version="1.0" encoding="UTF-8"?>
<svg width="390px" height="230px" viewBox="0 0 390 230" version="1.1" xmlns="http://www.w3.org/2000/svg" xmlns:xlink="http://www.w3.org/1999/xlink">
    <!-- Generator: Sketch 57.1 (83088) - https://sketch.com -->
    <title>library-colors</title>
    <desc>Created with Sketch.</desc>
    <g id="library-colors" stroke="none" stroke-width="1" fill="none" fill-rule="evenodd">
        <rect fill="#131415" x="0" y="0" width="390" height="230"></rect>
        <g id="colors-/-gray-/-swatch-1" transform="translate(20.000000, 160.000000)" fill="#2D2F30">
            <rect id="Rectangle" x="0" y="0" width="50" height="50"></rect>
        </g>
        <g id="colors-/-gray-/-swatch-2" transform="translate(70.000000, 160.000000)" fill="#383A3C">
            <rect id="Rectangle" x="0" y="0" width="50" height="50"></rect>
        </g>
        <g id="colors-/-gray-/-swatch-3" transform="translate(120.000000, 160.000000)" fill="#5E5F61">
            <rect id="Rectangle" x="0" y="0" width="50" height="50"></rect>
        </g>
        <g id="colors-/-gray-/-swatch-4" transform="translate(170.000000, 160.000000)" fill="#7D7E80">
            <rect id="Rectangle" x="0" y="0" width="50" height="50"></rect>
        </g>
        <g id="colors-/-gray-/-swatch-5" transform="translate(220.000000, 160.000000)" fill="#87898B">
            <rect id="Rectangle" x="0" y="0" width="50" height="50"></rect>
        </g>
        <g id="colors-/-black" transform="translate(20.000000, 20.000000)" fill="#000000">
            <rect id="Rectangle" x="0" y="0" width="50" height="50"></rect>
        </g>
        <g id="colors-/-red" transform="translate(20.000000, 90.000000)" fill="#FF5A52">
            <rect id="Rectangle" x="0" y="0" width="50" height="50"></rect>
        </g>
        <g id="colors-/-yellow" transform="translate(70.000000, 90.000000)" fill="#E6C029">
            <rect id="Rectangle" x="0" y="0" width="50" height="50"></rect>
        </g>
        <g id="colors-/-green" transform="translate(120.000000, 90.000000)" fill="#52C22C">
            <rect id="Rectangle" x="0" y="0" width="50" height="50"></rect>
        </g>
        <g id="colors-/-white" transform="translate(71.000000, 20.000000)" fill="#FFFFFF">
            <rect id="Rectangle" x="0" y="0" width="50" height="50"></rect>
        </g>
        <g id="colors-/-gray-/-swatch-6" transform="translate(270.000000, 160.000000)" fill="#B7B9BB">
            <rect id="Rectangle" x="0" y="0" width="50" height="50"></rect>
        </g>
        <g id="colors-/-gray-/-swatch-7" transform="translate(320.000000, 160.000000)" fill="#F3F4F6">
            <rect id="Rectangle" x="0" y="0" width="50" height="50"></rect>
        </g>
    </g>
</svg>